<?xml version="1.0" standalone="no"?>
<!DOCTYPE svg PUBLIC "-//W3C//DTD SVG 20010904//EN"
 "http://www.w3.org/TR/2001/REC-SVG-20010904/DTD/svg10.dtd">
<svg version="1.0" xmlns="http://www.w3.org/2000/svg"
 width="512.000000pt" height="512.000000pt" viewBox="0 0 512.000000 512.000000"
 preserveAspectRatio="xMidYMid meet">
<metadata>
Created by potrace 1.14, written by Peter Selinger 2001-2017
</metadata>
<g transform="translate(0.000000,512.000000) scale(0.100000,-0.100000)"
fill="#000000" stroke="none">
<path d="M0 2560 l0 -2560 2560 0 2560 0 0 2560 0 2560 -2560 0 -2560 0 0
-2560z m2769 2149 c111 -14 316 -62 406 -95 196 -72 501 -253 493 -292 -6 -32
-20 -27 -85 28 -7 5 -15 10 -19 10 -4 0 -23 12 -43 28 -45 34 -111 71 -226
126 -382 182 -819 214 -1228 90 -43 -13 -82 -24 -87 -24 -20 0 -188 -80 -305
-145 -93 -52 -233 -164 -349 -280 -64 -63 -116 -118 -116 -123 0 -5 -11 -22
-25 -38 -14 -16 -36 -45 -47 -64 -12 -19 -28 -39 -34 -45 -14 -11 -118 -212
-153 -295 -31 -74 -67 -195 -91 -305 -55 -258 -39 -599 41 -850 47 -147 152
-365 176 -365 13 0 14 9 9 53 -6 45 -4 57 14 80 12 15 30 27 40 27 41 0 94
-75 130 -180 23 -70 50 -176 50 -201 0 -30 35 -79 56 -79 8 0 14 3 14 8 0 4
-5 49 -10 100 -11 105 -6 138 21 153 46 24 95 -43 137 -188 16 -54 34 -132 41
-173 7 -41 16 -82 20 -90 14 -27 93 -61 236 -102 171 -49 213 -71 317 -167 77
-72 84 -76 142 -83 210 -27 548 -17 604 19 13 8 49 40 81 71 84 82 148 116
285 152 122 32 233 77 254 103 7 8 19 50 27 93 21 122 34 175 51 219 35 86 60
127 87 143 28 16 29 16 49 -8 18 -22 19 -33 13 -137 -4 -62 -4 -113 1 -113 15
0 54 43 54 60 0 32 42 185 71 262 30 76 81 138 114 138 32 0 55 -42 55 -102 0
-40 4 -58 13 -58 12 0 117 210 117 236 0 8 3 14 8 14 19 0 86 265 107 425 19
148 19 248 0 395 -21 171 -32 219 -79 358 -38 109 -63 164 -153 334 -8 15 -18
30 -24 33 -5 4 -9 15 -9 26 0 26 40 26 47 -1 3 -11 9 -20 13 -20 13 0 126
-239 158 -335 133 -393 135 -796 6 -1176 -4 -11 4 -20 24 -28 49 -20 57 -47
43 -148 -6 -48 -16 -135 -21 -193 -5 -58 -12 -120 -16 -137 -10 -51 8 -39 45
29 88 165 234 348 278 348 40 0 53 -11 53 -44 0 -17 -38 -148 -85 -291 -104
-317 -132 -418 -141 -515 -4 -41 -10 -85 -15 -97 -10 -26 -198 -152 -482 -321
-12 -7 -52 -32 -89 -55 -131 -82 -828 -512 -880 -544 -147 -89 -167 -95 -228
-65 -49 24 -80 75 -80 131 0 76 28 232 69 398 17 67 49 151 99 255 25 54 43
100 40 104 -3 3 -34 0 -68 -6 -75 -14 -408 -14 -465 0 -22 5 -43 10 -47 10
-16 0 -7 -31 27 -99 77 -152 142 -395 170 -632 10 -86 -27 -145 -107 -170 -30
-10 -44 -9 -75 4 -34 13 -258 149 -503 304 -47 29 -92 56 -100 60 -8 3 -40 23
-70 42 -31 20 -64 41 -75 48 -63 37 -606 375 -687 427 -122 78 -148 102 -148
136 0 95 -37 237 -165 625 -73 223 -82 260 -66 279 17 21 50 20 82 -2 56 -37
152 -165 228 -304 24 -43 47 -80 52 -84 12 -7 11 35 -1 111 -10 66 -33 308
-32 340 1 19 38 59 63 67 10 3 8 20 -8 74 -47 157 -82 383 -83 529 0 112 36
371 67 470 114 374 290 652 553 875 112 95 147 121 225 165 183 103 182 103
355 168 70 26 254 70 360 85 93 13 329 14 429 1z m-330 -257 c19 -9 48 -34 65
-55 l31 -39 0 -1437 -1 -1436 -23 -38 c-53 -86 -161 -112 -243 -57 -83 55
-132 200 -108 317 13 63 9 83 -19 83 -26 0 -40 -28 -48 -90 -3 -28 -11 -50
-17 -50 -23 0 -96 57 -134 105 -27 35 -44 70 -56 119 -9 38 -13 72 -9 76 4 3
37 12 73 19 36 7 80 21 98 31 32 19 54 18 82 -6 8 -7 31 -15 51 -19 29 -5 38
-3 43 10 7 19 -9 45 -29 45 -6 0 -31 13 -53 30 -44 32 -82 94 -82 134 0 35
-27 61 -47 44 -17 -14 -10 -85 13 -131 18 -33 12 -45 -32 -63 -41 -17 -109
-18 -171 -2 -95 23 -270 225 -368 423 -81 164 -106 260 -112 430 -5 123 -3
152 17 225 37 147 91 260 179 383 38 52 57 59 70 24 32 -84 135 -187 249 -249
69 -38 73 -42 65 -67 -4 -14 -8 -58 -8 -98 0 -55 4 -76 17 -90 29 -28 41 -4
39 79 -2 64 2 81 29 135 27 55 92 123 116 123 13 0 44 32 44 46 0 22 -35 25
-71 7 -18 -9 -55 -39 -82 -65 -26 -26 -54 -48 -61 -48 -22 0 -112 52 -160 92
-89 75 -156 208 -156 312 0 164 82 301 235 392 78 47 101 69 128 123 34 70
130 160 217 203 41 20 82 39 90 42 34 11 107 5 139 -12z m461 -21 c101 -50
142 -85 212 -183 16 -21 28 -41 28 -44 0 -21 56 -75 103 -99 110 -55 193 -149
230 -259 61 -179 -52 -424 -237 -514 -36 -18 -69 -32 -74 -32 -4 0 -26 18 -47
41 -53 54 -119 92 -145 84 -33 -11 -23 -33 30 -66 96 -59 140 -140 143 -265 2
-65 5 -79 19 -82 34 -7 47 59 33 173 l-7 60 69 35 c84 43 190 144 231 220 16
30 35 56 43 57 20 4 103 -117 159 -232 132 -273 129 -550 -10 -839 -87 -182
-242 -375 -343 -427 -56 -29 -156 -36 -212 -15 -50 20 -54 32 -30 89 18 44 19
91 2 105 -19 16 -34 1 -42 -43 -4 -22 -14 -52 -21 -66 -17 -34 -78 -87 -109
-95 -31 -8 -49 -36 -33 -52 17 -17 35 -15 85 10 39 20 47 21 76 9 46 -19 137
-41 171 -41 28 0 28 -1 22 -42 -18 -117 -55 -177 -151 -242 -64 -44 -69 -42
-79 31 -8 57 -22 83 -46 83 -28 0 -30 -11 -20 -78 22 -131 -26 -281 -104 -327
-86 -50 -193 -18 -240 73 -15 28 -16 160 -16 1455 0 1207 2 1430 14 1458 43
103 162 126 296 60z m1000 -333 c0 -13 -6 -18 -16 -16 -23 4 -39 32 -30 53 6
17 7 17 26 0 11 -10 20 -27 20 -37z"/>
<path d="M1055 1978 c-4 -10 -5 -35 -2 -55 3 -21 15 -117 27 -213 12 -96 26
-179 31 -185 11 -11 42 22 34 36 -5 8 -27 238 -29 304 0 23 -10 54 -21 70 -11
17 -23 37 -26 45 -6 13 -8 12 -14 -2z"/>
<path d="M4036 1947 c-19 -32 -27 -89 -45 -296 -9 -110 -7 -131 14 -131 15 0
18 16 40 200 9 69 20 152 25 184 12 84 -1 101 -34 43z"/>
<path d="M1380 1420 c0 -5 5 -10 11 -10 5 0 7 5 4 10 -3 6 -8 10 -11 10 -2 0
-4 -4 -4 -10z"/>
<path d="M3725 1420 c-3 -5 -1 -10 4 -10 6 0 11 5 11 10 0 6 -2 10 -4 10 -3 0
-8 -4 -11 -10z"/>
<path d="M2023 4064 c-11 -28 77 -103 157 -132 19 -7 65 -15 101 -19 60 -5 68
-4 78 15 15 29 -2 38 -80 44 -75 6 -143 35 -186 80 -30 31 -60 37 -70 12z"/>
<path d="M3005 4040 c-59 -46 -121 -70 -184 -70 -55 0 -74 -11 -69 -36 3 -17
13 -19 75 -18 40 0 85 6 100 14 15 7 43 20 61 29 50 24 104 77 100 98 -5 29
-30 24 -83 -17z"/>
</g>
</svg>
